# xmcd
#
# Track frame offsets:
#	150
#	17257
#	35633
#	55381
#	76787
#	93377
#	119290
#	136398
#	154774
#	174521
#	195928
#	212518
#	249831
#
# Disc length: 3346 seconds
#
# Revision: 1
# Processed by: cddbd v1.5.2PL0 Copyright (c) Steve Scherf et al.
# Submitted via: audiograbber 1.83.01
#
DISCID=990d100d
DTITLE=KENNY CHESNEY - CB20569
DYEAR=1900
DGENRE=
TTITLE0=WHEN THE SUN GOES DOWN
TTITLE1=I GO BACK
TTITLE2=THERE GOES MY LIFE
TTITLE3=WOMAN WITH YOU
TTITLE4=SOME PEOPLE CHANGE
TTITLE5=ANYTHING BUT MINE
TTITLE6=KEG IN THE CLOSET
TTITLE7=WHEN I THINK ABOUT LEAVING
TTITLE8=BEING DRUNK'S A LOT LIKE LOVING YOU
TTITLE9=OUTTA HERE
TTITLE10=OLD BLUE CHAIR
TTITLE11=BACK WHERE I COME FROM
TTITLE12=DATA
EXTD=
EXTT0=
EXTT1=
EXTT2=
EXTT3=
EXTT4=
EXTT5=
EXTT6=
EXTT7=
EXTT8=
EXTT9=
EXTT10=
EXTT11=
EXTT12=
PLAYORDER=
